<svg width="25" height="25" viewBox="0 0 25 25" fill="none" xmlns="http://www.w3.org/2000/svg">
<path d="M17.7621 2.43427H7.76208C5.00066 2.43427 2.76208 4.67284 2.76208 7.43427V17.4343C2.76208 20.1957 5.00066 22.4343 7.76208 22.4343H17.7621C20.5235 22.4343 22.7621 20.1957 22.7621 17.4343V7.43427C22.7621 4.67284 20.5235 2.43427 17.7621 2.43427Z" stroke="currentColor" stroke-width="2" stroke-linecap="round" stroke-linejoin="round"/>
<path d="M16.7621 11.8043C16.8855 12.6365 16.7434 13.4865 16.3559 14.2333C15.9684 14.9801 15.3552 15.5857 14.6037 15.9639C13.8522 16.3422 13.0005 16.4739 12.1699 16.3402C11.3392 16.2065 10.5719 15.8143 9.97694 15.2194C9.38201 14.6245 8.98983 13.8571 8.85616 13.0265C8.7225 12.1958 8.85416 11.3442 9.23242 10.5926C9.61068 9.84112 10.2163 9.228 10.9631 8.8405C11.7099 8.453 12.5599 8.31085 13.3921 8.43426C14.241 8.56015 15.0269 8.95572 15.6338 9.56257C16.2406 10.1694 16.6362 10.9553 16.7621 11.8043Z" stroke="currentColor" stroke-width="2" stroke-linecap="round" stroke-linejoin="round"/>
<path d="M18.2621 6.93427H18.2721" stroke="currentColor" stroke-width="2" stroke-linecap="round" stroke-linejoin="round"/>
</svg>
