<svg width="25" height="25" viewBox="0 0 25 25" fill="none" xmlns="http://www.w3.org/2000/svg">
<path d="M16.7621 8.43427C18.3534 8.43427 19.8795 9.06641 21.0047 10.1916C22.1299 11.3168 22.7621 12.843 22.7621 14.4343V21.4343H18.7621V14.4343C18.7621 13.9038 18.5514 13.3951 18.1763 13.0201C17.8012 12.645 17.2925 12.4343 16.7621 12.4343C16.2317 12.4343 15.7229 12.645 15.3479 13.0201C14.9728 13.3951 14.7621 13.9038 14.7621 14.4343V21.4343H10.7621V14.4343C10.7621 12.843 11.3942 11.3168 12.5194 10.1916C13.6447 9.06641 15.1708 8.43427 16.7621 8.43427Z" stroke="currentColor" stroke-width="2" stroke-linecap="round" stroke-linejoin="round"/>
<path d="M6.76208 9.43427H2.76208V21.4343H6.76208V9.43427Z" stroke="currentColor" stroke-width="2" stroke-linecap="round" stroke-linejoin="round"/>
<path d="M4.76208 6.43427C5.86665 6.43427 6.76208 5.53883 6.76208 4.43427C6.76208 3.3297 5.86665 2.43427 4.76208 2.43427C3.65752 2.43427 2.76208 3.3297 2.76208 4.43427C2.76208 5.53883 3.65752 6.43427 4.76208 6.43427Z" stroke="currentColor" stroke-width="2" stroke-linecap="round" stroke-linejoin="round"/>
</svg>
