<svg width="25" height="25" viewBox="0 0 25 25" fill="none" xmlns="http://www.w3.org/2000/svg">
<g clip-path="url(#clip0_2153_28)">
<path d="M15.8121 5.43427C16.7888 5.62483 17.6865 6.10252 18.3901 6.8062C19.0938 7.50988 19.5715 8.40753 19.7621 9.38426M15.8121 1.43427C17.8414 1.6597 19.7337 2.56844 21.1783 4.01127C22.623 5.45411 23.5341 7.34527 23.7621 9.37426M22.7621 17.3543V20.3543C22.7632 20.6328 22.7062 20.9084 22.5946 21.1636C22.483 21.4188 22.3194 21.6479 22.1142 21.8361C21.9089 22.0244 21.6667 22.1677 21.4028 22.257C21.139 22.3462 20.8595 22.3793 20.5821 22.3543C17.5049 22.0199 14.5491 20.9684 11.9521 19.2843C9.53591 17.7489 7.48742 15.7004 5.95208 13.2843C4.26206 10.6755 3.21032 7.70526 2.88208 4.61426C2.85709 4.33773 2.88995 4.05903 2.97858 3.79589C3.0672 3.53275 3.20965 3.29095 3.39685 3.08589C3.58404 2.88082 3.81188 2.71697 4.06587 2.60479C4.31986 2.4926 4.59442 2.43453 4.87208 2.43427H7.87208C8.35739 2.42949 8.82787 2.60134 9.19584 2.9178C9.56381 3.23425 9.80416 3.67371 9.87208 4.15427C9.9987 5.11433 10.2335 6.05699 10.5721 6.96427C10.7066 7.32219 10.7357 7.71118 10.656 8.08515C10.5762 8.45911 10.3909 8.80238 10.1221 9.07427L8.85208 10.3443C10.2756 12.8478 12.3485 14.9207 14.8521 16.3443L16.1221 15.0743C16.394 14.8054 16.7372 14.6201 17.1112 14.5404C17.4852 14.4606 17.8742 14.4897 18.2321 14.6243C19.1394 14.9628 20.082 15.1976 21.0421 15.3243C21.5278 15.3928 21.9715 15.6375 22.2886 16.0118C22.6057 16.386 22.7742 16.8638 22.7621 17.3543Z" stroke="currentColor" stroke-width="2" stroke-linecap="round" stroke-linejoin="round"/>
</g>
<defs>
<clipPath id="clip0_2153_28">
<rect width="24" height="24" fill="white" transform="translate(0.762085 0.434265)"/>
</clipPath>
</defs>
</svg>
