<svg width="25" height="25" viewBox="0 0 25 25" fill="none" xmlns="http://www.w3.org/2000/svg">
<g clip-path="url(#clip0_2153_33)">
<path d="M23.7621 3.43425C22.8045 4.10973 21.7442 4.62636 20.6221 4.96425C20.0198 4.27176 19.2194 3.78094 18.3291 3.55818C17.4388 3.33541 16.5016 3.39145 15.6442 3.7187C14.7868 4.04596 14.0505 4.62865 13.5351 5.38797C13.0196 6.14728 12.7498 7.04659 12.7621 7.96425V8.96425C11.0047 9.00982 9.26336 8.62006 7.69309 7.8297C6.12283 7.03933 4.7724 5.87289 3.76208 4.43425C3.76208 4.43425 -0.237915 13.4342 8.76208 17.4342C6.70261 18.8322 4.24924 19.5332 1.76208 19.4342C10.7621 24.4342 21.7621 19.4342 21.7621 7.93425C21.7612 7.6557 21.7344 7.37784 21.6821 7.10425C22.7027 6.09774 23.4229 4.82696 23.7621 3.43425Z" stroke="currentColor" stroke-width="2" stroke-linecap="round" stroke-linejoin="round"/>
</g>
<defs>
<clipPath id="clip0_2153_33">
<rect width="24" height="24" fill="white" transform="translate(0.762085 0.434265)"/>
</clipPath>
</defs>
</svg>
