<svg width="25" height="25" viewBox="0 0 25 25" fill="none" xmlns="http://www.w3.org/2000/svg">
<g clip-path="url(#clip0_2153_30)">
<path d="M23.3021 6.85427C23.1833 6.37968 22.9414 5.94484 22.6008 5.59367C22.2601 5.24251 21.8329 4.98745 21.3621 4.85427C19.6421 4.43427 12.7621 4.43427 12.7621 4.43427C12.7621 4.43427 5.88211 4.43427 4.16211 4.89427C3.69135 5.02745 3.26408 5.28251 2.92345 5.63367C2.58282 5.98484 2.3409 6.41968 2.22211 6.89427C1.90732 8.63982 1.75334 10.4106 1.76211 12.1843C1.75089 13.9713 1.90488 15.7556 2.22211 17.5143C2.35307 17.9741 2.60041 18.3924 2.94025 18.7287C3.28009 19.0651 3.70093 19.3081 4.16211 19.4343C5.88211 19.8943 12.7621 19.8943 12.7621 19.8943C12.7621 19.8943 19.6421 19.8943 21.3621 19.4343C21.8329 19.3011 22.2601 19.046 22.6008 18.6949C22.9414 18.3437 23.1833 17.9089 23.3021 17.4343C23.6145 15.7019 23.7684 13.9446 23.7621 12.1843C23.7733 10.3972 23.6193 8.61296 23.3021 6.85427Z" stroke="currentColor" stroke-width="2" stroke-linecap="round" stroke-linejoin="round"/>
<path d="M10.5121 15.4542L16.2621 12.1842L10.5121 8.91425V15.4542Z" stroke="currentColor" stroke-width="2" stroke-linecap="round" stroke-linejoin="round"/>
</g>
<defs>
<clipPath id="clip0_2153_30">
<rect width="24" height="24" fill="white" transform="translate(0.762085 0.434265)"/>
</clipPath>
</defs>
</svg>
